<svg height="278.08921179620495" width="337.5" viewBox="0 0 337.5 278.08921179620495" xmlns="http://www.w3.org/2000/svg">
  <defs id="SvgjsDefs1001"></defs>
  <g id="SvgjsG1007" featurekey="JQyOZB-0" transform="matrix(2.355558395385742,0,0,2.355558395385742,54.06641836398187,-31.86363996247155)" fill="#de3309">
    <path d="M87,50.636c0-0.016-0.009-0.03-0.01-0.046c0.001-0.109,0.009-0.217,0.009-0.327c0-20.257-17.139-36.736-38.206-36.736  c-21.067,0-38.207,16.479-38.207,36.736c0,0.084,0.006,0.167,0.006,0.251c0,0.083-0.007,0.165-0.007,0.248  c0,0.026,0.013,0.049,0.016,0.074C10.923,70.828,27.926,87,48.793,87c19.782,0,36.099-14.532,38.016-33.077  C86.935,52.84,87,51.743,87,50.636z M48.793,15.214c20.1,0,36.451,15.723,36.451,35.049c0,1.175-0.062,2.335-0.181,3.48  c-1.762,15.173-16.229,27.456-33.159,27.456c-17.448,0-25.044-8.427-28.186-17.432c5.134,8.276,14.913,14.01,25.852,14.01  c15.494,0,28.098-12.118,28.098-27.016c0-0.003-0.002-0.006-0.002-0.01c0-0.032-0.002-0.064-0.002-0.097  c0-0.006,0.004-0.012,0.004-0.018c0-0.115-0.008-0.228-0.01-0.342c-0.167-15.455-8.629-31.784-31.977-31.784  c-10.508,0-20.108,4.511-26.604,11.491C25.689,21.062,36.541,15.214,48.793,15.214z M75.91,50.762c0,0.003,0.002,0.005,0.002,0.008  C75.907,64.732,64.093,76.09,49.57,76.09c-14.833,0-27.683-11.793-27.731-25.255c0-0.065,0.161-0.134,0.161-0.199  c0-0.001,0-0.002,0-0.004c0-13.965,11.656-25.323,26.178-25.323c14.805,0,27.713,11.747,27.811,25.176  C75.99,50.577,75.91,50.679,75.91,50.762z M12.349,50.532c0.141-16.466,15.345-30.333,33.333-30.333  c16.148,0,23.691,8.021,27.202,15.96c-5.34-7.477-14.55-12.539-24.828-12.539C32.563,23.62,20,35.739,20,50.637  c0,0.002,0,0.003,0,0.005c0,0.038,0,0.078,0,0.116c0,0.001,0,0.002,0,0.004c0,0.017-0.039,0.034-0.039,0.051  c0.04,12.065,4.267,32.074,31.964,32.074c8.542,0,16.473-2.984,22.637-7.849c-6.6,6.345-15.716,10.273-25.764,10.273  C28.793,85.312,12.5,69.733,12.349,50.532z"></path>
  </g>
  <g id="SvgjsG1008" featurekey="SbCDzn-0" transform="matrix(1.4391096830368042,0,0,1.4391096830368042,-2.302574264783481,186.55278876474569)" fill="#7e131a">
    <path d="M4.72 17.46 q0.22 0.02 0.51 0.03 t0.69 0.01 q2.34 0 3.47 -1.18 t1.13 -3.26 q0 -2.18 -1.08 -3.3 t-3.42 -1.12 q-0.32 0 -0.66 0.01 t-0.64 0.05 l0 8.76 z M13.74 13.059999999999999 q0 1.8 -0.56 3.14 t-1.59 2.22 t-2.51 1.32 t-3.32 0.44 q-0.84 0 -1.96 -0.07 t-2.2 -0.29 l0 -13.5 q1.08 -0.2 2.25 -0.27 t2.01 -0.07 q1.78 0 3.23 0.4 t2.49 1.26 t1.6 2.2 t0.56 3.22 z M19.12 20 l-2.98 0 l0 -10.52 l2.98 0 l0 10.52 z M19.4 6.4399999999999995 q0 0.82 -0.53 1.29 t-1.25 0.47 t-1.25 -0.47 t-0.53 -1.29 t0.53 -1.29 t1.25 -0.47 t1.25 0.47 t0.53 1.29 z M24.939999999999998 17.86 q0.82 0 1.16 -0.16 t0.34 -0.62 q0 -0.36 -0.44 -0.63 t-1.34 -0.61 q-0.7 -0.26 -1.27 -0.54 t-0.97 -0.67 t-0.62 -0.93 t-0.22 -1.3 q0 -1.48 1.1 -2.34 t3.02 -0.86 q0.96 0 1.84 0.17 t1.4 0.37 l-0.52 2.32 q-0.52 -0.18 -1.13 -0.32 t-1.37 -0.14 q-1.4 0 -1.4 0.78 q0 0.18 0.06 0.32 t0.24 0.27 t0.49 0.28 t0.79 0.33 q0.98 0.36 1.62 0.71 t1.01 0.76 t0.52 0.91 t0.15 1.16 q0 1.56 -1.17 2.36 t-3.31 0.8 q-1.4 0 -2.33 -0.24 t-1.29 -0.4 l0.5 -2.42 q0.76 0.3 1.56 0.47 t1.58 0.17 z M31.119999999999997 14.74 q0 -1.14 0.37 -2.15 t1.07 -1.76 t1.7 -1.19 t2.28 -0.44 q0.84 0 1.54 0.15 t1.36 0.43 l-0.62 2.38 q-0.42 -0.16 -0.92 -0.28 t-1.12 -0.12 q-1.32 0 -1.97 0.82 t-0.65 2.16 q0 1.42 0.61 2.2 t2.13 0.78 q0.54 0 1.16 -0.1 t1.14 -0.32 l0.42 2.44 q-0.52 0.22 -1.3 0.38 t-1.72 0.16 q-1.44 0 -2.48 -0.43 t-1.71 -1.17 t-0.98 -1.75 t-0.31 -2.19 z M51.46 14.719999999999999 q0 1.24 -0.36 2.27 t-1.04 1.76 t-1.63 1.13 t-2.13 0.4 q-1.16 0 -2.11 -0.4 t-1.63 -1.13 t-1.06 -1.76 t-0.38 -2.27 t0.39 -2.26 t1.08 -1.74 t1.64 -1.12 t2.07 -0.4 q1.14 0 2.09 0.4 t1.63 1.12 t1.06 1.74 t0.38 2.26 z M48.42 14.719999999999999 q0 -1.38 -0.55 -2.17 t-1.57 -0.79 t-1.58 0.79 t-0.56 2.17 t0.56 2.19 t1.58 0.81 t1.57 -0.81 t0.55 -2.19 z M56.62 20 q-1.02 -2 -2.07 -4.68 t-1.99 -5.84 l3.16 0 q0.2 0.78 0.47 1.69 t0.56 1.84 t0.58 1.81 t0.57 1.6 q0.26 -0.72 0.56 -1.6 t0.59 -1.81 t0.56 -1.84 t0.47 -1.69 l3.08 0 q-0.94 3.16 -1.99 5.84 t-2.07 4.68 l-2.48 0 z M64.26 14.82 q0 -1.4 0.43 -2.45 t1.13 -1.75 t1.61 -1.06 t1.87 -0.36 q2.24 0 3.54 1.37 t1.3 4.03 q0 0.26 -0.02 0.57 t-0.04 0.55 l-6.76 0 q0.1 0.92 0.86 1.46 t2.04 0.54 q0.82 0 1.61 -0.15 t1.29 -0.37 l0.4 2.42 q-0.24 0.12 -0.64 0.24 t-0.89 0.21 t-1.05 0.15 t-1.12 0.06 q-1.42 0 -2.47 -0.42 t-1.74 -1.15 t-1.02 -1.73 t-0.33 -2.16 z M71.26 13.68 q-0.02 -0.38 -0.13 -0.74 t-0.34 -0.64 t-0.58 -0.46 t-0.87 -0.18 q-0.5 0 -0.86 0.17 t-0.6 0.45 t-0.37 0.65 t-0.19 0.75 l3.94 0 z M82.77999999999999 12.120000000000001 q-0.4 -0.1 -0.94 -0.21 t-1.16 -0.11 q-0.28 0 -0.67 0.05 t-0.59 0.11 l0 8.04 l-2.98 0 l0 -9.96 q0.8 -0.28 1.89 -0.53 t2.43 -0.25 q0.24 0 0.58 0.03 t0.68 0.08 t0.68 0.12 t0.58 0.17 z M89.17999999999999 14.82 q0 -1.4 0.43 -2.45 t1.13 -1.75 t1.61 -1.06 t1.87 -0.36 q2.24 0 3.54 1.37 t1.3 4.03 q0 0.26 -0.02 0.57 t-0.04 0.55 l-6.76 0 q0.1 0.92 0.86 1.46 t2.04 0.54 q0.82 0 1.61 -0.15 t1.29 -0.37 l0.4 2.42 q-0.24 0.12 -0.64 0.24 t-0.89 0.21 t-1.05 0.15 t-1.12 0.06 q-1.42 0 -2.47 -0.42 t-1.74 -1.15 t-1.02 -1.73 t-0.33 -2.16 z M96.17999999999999 13.68 q-0.02 -0.38 -0.13 -0.74 t-0.34 -0.64 t-0.58 -0.46 t-0.87 -0.18 q-0.5 0 -0.86 0.17 t-0.6 0.45 t-0.37 0.65 t-0.19 0.75 l3.94 0 z M105.53999999999998 12.68 l2.08 -3.2 l3.08 0 l-3.6 5.06 q1.2 1.5 2.18 2.92 t1.56 2.54 l-3.2 0 l-0.4 -0.75 t-0.54 -0.94 t-0.63 -0.98 t-0.65 -0.89 q-0.3 0.38 -0.61 0.84 t-0.59 0.93 t-0.55 0.93 t-0.47 0.86 l-3.04 0 q0.24 -0.5 0.66 -1.18 t0.91 -1.41 t1.03 -1.46 t1.06 -1.37 q-0.9 -1.26 -1.8 -2.55 t-1.78 -2.55 l3.22 0 z M111.93999999999998 14.74 q0 -1.14 0.37 -2.15 t1.07 -1.76 t1.7 -1.19 t2.28 -0.44 q0.84 0 1.54 0.15 t1.36 0.43 l-0.62 2.38 q-0.42 -0.16 -0.92 -0.28 t-1.12 -0.12 q-1.32 0 -1.97 0.82 t-0.65 2.16 q0 1.42 0.61 2.2 t2.13 0.78 q0.54 0 1.16 -0.1 t1.14 -0.32 l0.42 2.44 q-0.52 0.22 -1.3 0.38 t-1.72 0.16 q-1.44 0 -2.48 -0.43 t-1.71 -1.17 t-0.98 -1.75 t-0.31 -2.19 z M121.93999999999998 14.82 q0 -1.4 0.43 -2.45 t1.13 -1.75 t1.61 -1.06 t1.87 -0.36 q2.24 0 3.54 1.37 t1.3 4.03 q0 0.26 -0.02 0.57 t-0.04 0.55 l-6.76 0 q0.1 0.92 0.86 1.46 t2.04 0.54 q0.82 0 1.61 -0.15 t1.29 -0.37 l0.4 2.42 q-0.24 0.12 -0.64 0.24 t-0.89 0.21 t-1.05 0.15 t-1.12 0.06 q-1.42 0 -2.47 -0.42 t-1.74 -1.15 t-1.02 -1.73 t-0.33 -2.16 z M128.93999999999997 13.68 q-0.02 -0.38 -0.13 -0.74 t-0.34 -0.64 t-0.58 -0.46 t-0.87 -0.18 q-0.5 0 -0.86 0.17 t-0.6 0.45 t-0.37 0.65 t-0.19 0.75 l3.94 0 z M138.31999999999996 20.2 q-1.3 -0.02 -2.11 -0.28 t-1.28 -0.73 t-0.64 -1.14 t-0.17 -1.51 l0 -11.58 l2.98 -0.48 l0 11.46 q0 0.4 0.06 0.72 t0.23 0.54 t0.49 0.36 t0.86 0.18 z M144.63999999999996 20.2 q-1.3 -0.02 -2.11 -0.28 t-1.28 -0.73 t-0.64 -1.14 t-0.17 -1.51 l0 -11.58 l2.98 -0.48 l0 11.46 q0 0.4 0.06 0.72 t0.23 0.54 t0.49 0.36 t0.86 0.18 z M146.25999999999996 14.82 q0 -1.4 0.43 -2.45 t1.13 -1.75 t1.61 -1.06 t1.87 -0.36 q2.24 0 3.54 1.37 t1.3 4.03 q0 0.26 -0.02 0.57 t-0.04 0.55 l-6.76 0 q0.1 0.92 0.86 1.46 t2.04 0.54 q0.82 0 1.61 -0.15 t1.29 -0.37 l0.4 2.42 q-0.24 0.12 -0.64 0.24 t-0.89 0.21 t-1.05 0.15 t-1.12 0.06 q-1.42 0 -2.47 -0.42 t-1.74 -1.15 t-1.02 -1.73 t-0.33 -2.16 z M153.25999999999996 13.68 q-0.02 -0.38 -0.13 -0.74 t-0.34 -0.64 t-0.58 -0.46 t-0.87 -0.18 q-0.5 0 -0.86 0.17 t-0.6 0.45 t-0.37 0.65 t-0.19 0.75 l3.94 0 z M158.43999999999997 9.84 q0.76 -0.22 1.96 -0.41 t2.52 -0.19 q1.34 0 2.23 0.35 t1.41 0.99 t0.74 1.52 t0.22 1.96 l0 5.94 l-2.98 0 l0 -5.58 q0 -1.44 -0.38 -2.04 t-1.42 -0.6 q-0.32 0 -0.68 0.03 t-0.64 0.07 l0 8.12 l-2.98 0 l0 -10.16 z M169.71999999999997 14.74 q0 -1.14 0.37 -2.15 t1.07 -1.76 t1.7 -1.19 t2.28 -0.44 q0.84 0 1.54 0.15 t1.36 0.43 l-0.62 2.38 q-0.42 -0.16 -0.92 -0.28 t-1.12 -0.12 q-1.32 0 -1.97 0.82 t-0.65 2.16 q0 1.42 0.61 2.2 t2.13 0.78 q0.54 0 1.16 -0.1 t1.14 -0.32 l0.42 2.44 q-0.52 0.22 -1.3 0.38 t-1.72 0.16 q-1.44 0 -2.48 -0.43 t-1.71 -1.17 t-0.98 -1.75 t-0.31 -2.19 z M179.71999999999997 14.82 q0 -1.4 0.43 -2.45 t1.13 -1.75 t1.61 -1.06 t1.87 -0.36 q2.24 0 3.54 1.37 t1.3 4.03 q0 0.26 -0.02 0.57 t-0.04 0.55 l-6.76 0 q0.1 0.92 0.86 1.46 t2.04 0.54 q0.82 0 1.61 -0.15 t1.29 -0.37 l0.4 2.42 q-0.24 0.12 -0.64 0.24 t-0.89 0.21 t-1.05 0.15 t-1.12 0.06 q-1.42 0 -2.47 -0.42 t-1.74 -1.15 t-1.02 -1.73 t-0.33 -2.16 z M186.71999999999997 13.68 q-0.02 -0.38 -0.13 -0.74 t-0.34 -0.64 t-0.58 -0.46 t-0.87 -0.18 q-0.5 0 -0.86 0.17 t-0.6 0.45 t-0.37 0.65 t-0.19 0.75 l3.94 0 z M203.1 13.96 q-0.4 1.52 -0.85 3.02 t-0.95 3.02 l-2.32 0 q-0.36 -0.84 -0.78 -2 t-0.87 -2.53 t-0.92 -2.9 t-0.91 -3.09 l3.14 0 q0.16 0.72 0.35 1.57 t0.4 1.75 t0.44 1.81 t0.47 1.75 q0.26 -0.88 0.51 -1.8 t0.48 -1.81 t0.44 -1.72 t0.37 -1.55 l2.16 0 q0.16 0.72 0.36 1.55 t0.42 1.72 t0.46 1.81 t0.5 1.8 q0.24 -0.84 0.48 -1.75 t0.45 -1.81 t0.4 -1.75 t0.35 -1.57 l3.1 0 q-0.44 1.56 -0.91 3.09 t-0.92 2.9 t-0.88 2.53 t-0.79 2 l-2.32 0 q-0.5 -1.52 -0.98 -3.02 t-0.88 -3.02 z M215.35999999999999 20 l-2.98 0 l0 -10.52 l2.98 0 l0 10.52 z M215.64 6.4399999999999995 q0 0.82 -0.53 1.29 t-1.25 0.47 t-1.25 -0.47 t-0.53 -1.29 t0.53 -1.29 t1.25 -0.47 t1.25 0.47 t0.53 1.29 z M218.06 6.859999999999999 l2.98 -0.48 l0 3.1 l3.58 0 l0 2.48 l-3.58 0 l0 3.7 q0 0.94 0.33 1.5 t1.33 0.56 q0.48 0 0.99 -0.09 t0.93 -0.25 l0.42 2.32 q-0.54 0.22 -1.2 0.38 t-1.62 0.16 q-1.22 0 -2.02 -0.33 t-1.28 -0.92 t-0.67 -1.43 t-0.19 -1.86 l0 -8.84 z M227.04 20 l0 -15.04 l2.98 -0.48 l0 5.04 q0.3 -0.1 0.77 -0.19 t0.91 -0.09 q1.28 0 2.13 0.35 t1.36 0.99 t0.72 1.52 t0.21 1.96 l0 5.94 l-2.98 0 l0 -5.58 q0 -1.44 -0.37 -2.04 t-1.37 -0.6 q-0.4 0 -0.75 0.07 t-0.63 0.15 l0 8 l-2.98 0 z"></path>
  </g>
  <g id="SvgjsG1009" featurekey="SbCDzn-1" transform="matrix(3.3133716583251953,0,0,3.3133716583251953,-0.6626772769721905,211.15609756516594)" fill="#7e131a">
    <path d="M9.18 15.34 q0 1.02 -0.23 1.92 t-0.8 1.57 t-1.54 1.06 t-2.45 0.39 q-1.36 0 -2.34 -0.33 t-1.62 -0.77 l1.04 -2.42 q0.58 0.34 1.24 0.6 t1.44 0.26 q1.14 0 1.64 -0.56 t0.5 -1.88 l0 -9.04 l3.12 0 l0 9.2 z M16.3 20 q-0.82 -1.74 -1.62 -3.62 t-1.52 -3.72 t-1.33 -3.52 t-1.05 -3 l3.44 0 q0.4 1.2 0.87 2.59 t0.96 2.77 t0.95 2.64 t0.86 2.18 q0.38 -0.92 0.85 -2.18 t0.96 -2.64 t0.96 -2.77 t0.87 -2.59 l3.32 0 q-0.46 1.32 -1.06 3 t-1.32 3.52 t-1.52 3.72 t-1.62 3.62 l-3 0 z M32.94 20.28 q-3.38 0 -5.15 -1.88 t-1.77 -5.34 q0 -1.72 0.54 -3.07 t1.48 -2.28 t2.24 -1.41 t2.82 -0.48 q0.88 0 1.6 0.13 t1.26 0.3 t0.9 0.35 t0.52 0.28 l-0.9 2.52 q-0.64 -0.34 -1.49 -0.58 t-1.93 -0.24 q-0.72 0 -1.41 0.24 t-1.22 0.77 t-0.85 1.37 t-0.32 2.04 q0 0.96 0.21 1.79 t0.68 1.43 t1.23 0.95 t1.84 0.35 q0.68 0 1.22 -0.08 t0.96 -0.19 t0.74 -0.25 t0.58 -0.26 l0.86 2.5 q-0.66 0.4 -1.86 0.72 t-2.78 0.32 z M51.14 8.54 q-2.18 0 -3.15 1.21 t-0.97 3.31 q0 1.02 0.24 1.85 t0.72 1.43 t1.2 0.93 t1.68 0.33 q0.52 0 0.89 -0.02 t0.65 -0.08 l0 -4.82 l3.12 0 l0 6.86 q-0.56 0.22 -1.8 0.47 t-3.06 0.25 q-1.56 0 -2.83 -0.48 t-2.17 -1.4 t-1.39 -2.26 t-0.49 -3.06 q0 -1.74 0.54 -3.08 t1.48 -2.27 t2.21 -1.41 t2.71 -0.48 q0.98 0 1.77 0.13 t1.36 0.3 t0.94 0.35 t0.53 0.28 l-0.9 2.5 q-0.64 -0.34 -1.47 -0.59 t-1.81 -0.25 z M68.06 14.719999999999999 q0 1.24 -0.36 2.27 t-1.04 1.76 t-1.63 1.13 t-2.13 0.4 q-1.16 0 -2.11 -0.4 t-1.63 -1.13 t-1.06 -1.76 t-0.38 -2.27 t0.39 -2.26 t1.08 -1.74 t1.64 -1.12 t2.07 -0.4 q1.14 0 2.09 0.4 t1.63 1.12 t1.06 1.74 t0.38 2.26 z M65.02 14.719999999999999 q0 -1.38 -0.55 -2.17 t-1.57 -0.79 t-1.58 0.79 t-0.56 2.17 t0.56 2.19 t1.58 0.81 t1.57 -0.81 t0.55 -2.19 z M80.2 14.719999999999999 q0 1.24 -0.36 2.27 t-1.04 1.76 t-1.63 1.13 t-2.13 0.4 q-1.16 0 -2.11 -0.4 t-1.63 -1.13 t-1.06 -1.76 t-0.38 -2.27 t0.39 -2.26 t1.08 -1.74 t1.64 -1.12 t2.07 -0.4 q1.14 0 2.09 0.4 t1.63 1.12 t1.06 1.74 t0.38 2.26 z M77.16000000000001 14.719999999999999 q0 -1.38 -0.55 -2.17 t-1.57 -0.79 t-1.58 0.79 t-0.56 2.17 t0.56 2.19 t1.58 0.81 t1.57 -0.81 t0.55 -2.19 z M85.04 14.66 q0 1.38 0.62 2.22 t1.84 0.84 q0.4 0 0.74 -0.03 t0.56 -0.07 l0 -5.42 q-0.28 -0.18 -0.73 -0.3 t-0.91 -0.12 q-2.12 0 -2.12 2.88 z M91.78 19.66 q-0.4 0.12 -0.92 0.23 t-1.09 0.19 t-1.16 0.13 t-1.13 0.05 q-1.3 0 -2.32 -0.38 t-1.72 -1.09 t-1.07 -1.72 t-0.37 -2.27 q0 -1.28 0.32 -2.31 t0.92 -1.75 t1.47 -1.1 t1.99 -0.38 q0.62 0 1.11 0.12 t0.99 0.34 l0 -4.76 l2.98 -0.48 l0 15.18 z M97.60000000000001 17.86 q0.82 0 1.16 -0.16 t0.34 -0.62 q0 -0.36 -0.44 -0.63 t-1.34 -0.61 q-0.7 -0.26 -1.27 -0.54 t-0.97 -0.67 t-0.62 -0.93 t-0.22 -1.3 q0 -1.48 1.1 -2.34 t3.02 -0.86 q0.96 0 1.84 0.17 t1.4 0.37 l-0.52 2.32 q-0.52 -0.18 -1.13 -0.32 t-1.37 -0.14 q-1.4 0 -1.4 0.78 q0 0.18 0.06 0.32 t0.24 0.27 t0.49 0.28 t0.79 0.33 q0.98 0.36 1.62 0.71 t1.01 0.76 t0.52 0.91 t0.15 1.16 q0 1.56 -1.17 2.36 t-3.31 0.8 q-1.4 0 -2.33 -0.24 t-1.29 -0.4 l0.5 -2.42 q0.76 0.3 1.56 0.47 t1.58 0.17 z"></path>
  </g>
</svg>
