<?xml version="1.0" encoding="UTF-8" standalone="no"?>
<svg
   height="278.0892"
   width="337.5"
   viewBox="0 0 337.5 278.08921"
   version="1.1"
   id="svg3"
   xmlns="http://www.w3.org/2000/svg"
   xmlns:svg="http://www.w3.org/2000/svg">
  <defs
     id="SvgjsDefs1001" />
  <g
     id="SvgjsG1007"
     featurekey="JQyOZB-0"
     transform="matrix(3.7760387,0,0,3.7760387,-10.697859,-49.666858)"
     fill="#de3309">
    <path
       d="m 87,50.636 c 0,-0.016 -0.009,-0.03 -0.01,-0.046 0.001,-0.109 0.009,-0.217 0.009,-0.327 0,-20.257 -17.139,-36.736 -38.206,-36.736 -21.067,0 -38.207,16.479 -38.207,36.736 0,0.084 0.006,0.167 0.006,0.251 0,0.083 -0.007,0.165 -0.007,0.248 0,0.026 0.013,0.049 0.016,0.074 C 10.923,70.828 27.926,87 48.793,87 68.575,87 84.892,72.468 86.809,53.923 86.935,52.84 87,51.743 87,50.636 Z M 48.793,15.214 c 20.1,0 36.451,15.723 36.451,35.049 0,1.175 -0.062,2.335 -0.181,3.48 -1.762,15.173 -16.229,27.456 -33.159,27.456 -17.448,0 -25.044,-8.427 -28.186,-17.432 5.134,8.276 14.913,14.01 25.852,14.01 15.494,0 28.098,-12.118 28.098,-27.016 0,-0.003 -0.002,-0.006 -0.002,-0.01 0,-0.032 -0.002,-0.064 -0.002,-0.097 0,-0.006 0.004,-0.012 0.004,-0.018 0,-0.115 -0.008,-0.228 -0.01,-0.342 C 77.491,34.839 69.029,18.51 45.681,18.51 35.173,18.51 25.573,23.021 19.077,30.001 25.689,21.062 36.541,15.214 48.793,15.214 Z M 75.91,50.762 c 0,0.003 0.002,0.005 0.002,0.008 C 75.907,64.732 64.093,76.09 49.57,76.09 34.737,76.09 21.887,64.297 21.839,50.835 21.839,50.77 22,50.701 22,50.636 c 0,-0.001 0,-0.002 0,-0.004 0,-13.965 11.656,-25.323 26.178,-25.323 14.805,0 27.713,11.747 27.811,25.176 10e-4,0.092 -0.079,0.194 -0.079,0.277 z M 12.349,50.532 C 12.49,34.066 27.694,20.199 45.682,20.199 c 16.148,0 23.691,8.021 27.202,15.96 C 67.544,28.682 58.334,23.62 48.056,23.62 32.563,23.62 20,35.739 20,50.637 c 0,0.002 0,0.003 0,0.005 0,0.038 0,0.078 0,0.116 0,10e-4 0,0.002 0,0.004 0,0.017 -0.039,0.034 -0.039,0.051 0.04,12.065 4.267,32.074 31.964,32.074 8.542,0 16.473,-2.984 22.637,-7.849 -6.6,6.345 -15.716,10.273 -25.764,10.273 C 28.793,85.312 12.5,69.733 12.349,50.532 Z"
       id="path1" />
  </g>
</svg>
